<?xml version="1.0" encoding="UTF-8" standalone="no"?>
<!-- Created with Inkscape (http://www.inkscape.org/) -->

<svg
   width="100mm"
   height="45mm"
   viewBox="0 0 377.95325 170.07862"
   version="1.1"
   id="svg5"
   inkscape:version="1.2.2 (b0a8486541, 2022-12-01)"
   sodipodi:docname="mantra-logo-login.svg"
   xmlns:inkscape="http://www.inkscape.org/namespaces/inkscape"
   xmlns:sodipodi="http://sodipodi.sourceforge.net/DTD/sodipodi-0.dtd"
   xmlns="http://www.w3.org/2000/svg"
   xmlns:svg="http://www.w3.org/2000/svg">
  <sodipodi:namedview
     id="namedview7"
     pagecolor="#ffffff"
     bordercolor="#000000"
     borderopacity="0.25"
     inkscape:showpageshadow="2"
     inkscape:pageopacity="0.0"
     inkscape:pagecheckerboard="0"
     inkscape:deskcolor="#d1d1d1"
     inkscape:document-units="mm"
     showgrid="false"
     showguides="true"
     inkscape:zoom="2.1217064"
     inkscape:cx="188.05618"
     inkscape:cy="139.74601"
     inkscape:window-width="1854"
     inkscape:window-height="1011"
     inkscape:window-x="0"
     inkscape:window-y="0"
     inkscape:window-maximized="1"
     inkscape:current-layer="g2801" />
  <defs
     id="defs2">
    <inkscape:path-effect
       effect="bspline"
       id="path-effect432"
       is_visible="true"
       lpeversion="1"
       weight="33.333333"
       steps="2"
       helper_size="0"
       apply_no_weight="true"
       apply_with_weight="true"
       only_selected="false" />
  </defs>
  <g
     inkscape:label="Layer 1"
     inkscape:groupmode="layer"
     id="layer1"
     transform="translate(-16.020238,-21.322821)">
    <g
       id="g2801"
       transform="translate(-20.254074,-15.688168)">
      <path
         style="fill:#ffffff;stroke:none;stroke-width:13.595;stop-color:#000000"
         d="m 204.56271,182.41077 -75.94133,-10.35981 -47.93097,-23.70037 7.296246,-27.2187 45.981254,-14.80973 45.68852,-8.233365 54.859,3.669295 39.07163,18.41828 29.74468,26.25028 6.6132,15.0454 -7.85226,5.7221 -70.90042,13.59094 z"
         id="path352"
         transform="translate(20.254074,15.688168)" />
      <g
         id="g2586"
         transform="translate(-2.4192783,-1.9486608)">
        <path
           id="path1477"
           style="font-variation-settings:normal;display:inline;opacity:1;vector-effect:none;fill:#ffb5ff;fill-opacity:1;stroke-width:1.12143;stroke-linecap:butt;stroke-linejoin:miter;stroke-miterlimit:4;stroke-dasharray:none;stroke-dashoffset:0;stroke-opacity:1;-inkscape-stroke:none;stop-color:#000000;stop-opacity:1"
           d="m 242.53327,116.18359 c -1.09855,0.21405 -2.19624,0.43339 -3.29687,0.63672 -3.67871,0.70489 -1.46477,0.28977 -4.93555,0.91992 -0.53068,0.0964 -3.4042,0.64601 -4.07813,0.6836 -0.81035,0.0452 -2.02638,0.66105 -2.43359,-0.041 -0.37473,-0.6461 -0.63081,-1.3409 -0.8418,-2.05469 h -8.06054 -12.625 -10.76563 -6.89062 -5.14844 c -1.81762,-0.0253 -3.62469,-0.0166 -5.43555,0.14063 -2.24774,0.20317 -4.5015,0.30739 -6.74414,0.5625 -0.70231,0.0861 -1.40719,0.14385 -2.11133,0.20898 -1.06195,4.17982 -1.61478,8.47267 -1.64648,12.78516 -6.4e-4,29.55828 23.96125,53.52017 53.51953,53.51953 29.55752,-4.4e-4 53.51822,-23.96201 53.51758,-53.51953 -6.1e-4,-2.64372 -0.19711,-5.28376 -0.58789,-7.89844 -4.18373,-0.48033 -8.33204,-1.36487 -12.45899,-2.14453 -6.32218,-1.28665 -12.64774,-2.55006 -18.97656,-3.79883 z"
           sodipodi:nodetypes="sccssccccccccccccccss" />
        <path
           id="path1477-5"
           style="font-variation-settings:normal;display:inline;vector-effect:none;fill:#616161;fill-opacity:1;stroke-width:0.463074;stroke-linecap:butt;stroke-linejoin:miter;stroke-miterlimit:4;stroke-dasharray:none;stroke-dashoffset:0;stroke-opacity:1;-inkscape-stroke:none;stop-color:#000000"
           d="m 203.75983,116.32812 a 22.099453,22.099453 0 0 0 -4.82031,13.69727 22.099453,22.099453 0 0 0 22.09961,22.09961 22.099453,22.099453 0 0 0 22.09961,-22.09961 22.099453,22.099453 0 0 0 -4.34766,-13.12109 c -2.46472,0.47337 -1.33273,0.26266 -4.49023,0.83593 -0.53068,0.0964 -3.4042,0.64601 -4.07813,0.6836 -0.81036,0.0452 -2.02638,0.66107 -2.43359,-0.041 -0.37473,-0.6461 -0.63081,-1.3409 -0.8418,-2.05469 h -8.06054 -12.625 z" />
      </g>
      <path
         id="path426"
         style="display:inline;fill:#616161;fill-opacity:1;stroke-width:0.936106"
         d="m 215.80149,109.46149 c -35.35635,0.39967 -45.65761,1.58453 -103.78125,20.7461 -24.630583,8.11994 -42.161644,12.01143 -71.058595,3.49805 58.200522,53.01425 109.135895,64.79494 173.804695,69.41992 30.30641,2.16745 86.52957,-6.91138 123.93359,-22.13867 0,0 -27.47858,-71.5254 -122.89844,-71.5254 z m -5.50781,9.02344 c 44.57968,-0.49218 90.35967,15.07849 113.80274,59.06836 0,0 -49.44977,18.25525 -107.13672,15.62696 -57.68695,-2.62829 -112.94828,-27.54181 -108.45704,-39.09766 7.22413,-18.58752 57.21133,-35.10548 101.79102,-35.59766 z" />
      <path
         id="path490"
         style="display:inline;fill:#70ccff;fill-opacity:1;stroke-width:0.397617"
         inkscape:transform-center-y="-8.8723251"
         d="m 397.18978,41.586478 -7.50741,26.61758 c 0,0 -7.66868,20.96833 -7.67073,26.62536 -0.002,5.657032 6.77273,15.129102 15.12815,15.129252 8.35541,-1.5e-4 15.12887,-9.52371 15.12814,-15.129252 -7.3e-4,-5.60554 -7.57074,-26.62536 -7.57074,-26.62536 z"
         sodipodi:nodetypes="ccscscc" />
    </g>
  </g>
</svg>
